<mxfile host="app.diagrams.net" modified="2024-02-03T06:32:12.498Z" agent="Mozilla/5.0 (X11; Ubuntu; Linux x86_64; rv:122.0) Gecko/20100101 Firefox/122.0" version="22.1.18" etag="XkhU-1SpzijHM2QhEQpu" type="github">
  <diagram name="Page-1" id="_rMKKSsN13AcybkhJAO7">
    <mxGraphModel>
      <root>
        <mxCell id="0" />
        <mxCell id="1" parent="0" />
      </root>
    </mxGraphModel>
  </diagram>
</mxfile>
